<?xml version="1.0" encoding="UTF-8"?>
<svg id="Layer_1" xmlns="http://www.w3.org/2000/svg" version="1.1" viewBox="0 0 841.89 595.28">
  <!-- Generator: Adobe Illustrator 30.0.0, SVG Export Plug-In . SVG Version: 2.1.1 Build 123)  -->
  <defs>
    <style>
      .st0 {
        fill: #662d91;
      }
    </style>
  </defs>
  <path class="st0" d="M586.88,245.73c-9.16-10.37,8.52-16.39,14.48-20.3,41.38-27.15,37.16-105.54-13.69-120.5-51.94-15.28-87.04,34.55-99.39,78.08-22.44,79.11,11.34,140.97,54.87,203.72,35.48,51.15,76.25,98.58,117.47,145.1,5.09,8.51-3.45,18.4-12.69,13.57-3.94-2.06-6.23-5.96-8.99-8.46-15.1-13.72-28.65-28.94-42.77-43.63-78.37-81.57-184.28-187.72-144.31-312.69,17.26-53.96,66.85-106.22,128.09-98.5,77.13,9.72,92.13,118.86,31.53,158.68-6.13,4.03-18.39,11.99-24.61,4.94Z"/>
  <path class="st0" d="M255.01,245.73c9.16-10.37-8.52-16.39-14.48-20.3-41.38-27.15-37.16-105.54,13.69-120.5,51.94-15.28,87.04,34.55,99.39,78.08,22.44,79.11-11.34,140.97-54.87,203.72-35.48,51.15-76.25,98.58-117.47,145.1-5.09,8.51,3.45,18.4,12.69,13.57,3.94-2.06,6.23-5.96,8.99-8.46,15.1-13.72,28.65-28.94,42.77-43.63,78.37-81.57,184.28-187.72,144.31-312.69-17.26-53.96-66.85-106.22-128.09-98.5-77.13,9.72-92.13,118.86-31.53,158.68,6.13,4.03,18.39,11.99,24.61,4.94Z"/>
</svg>